{"title":"Broken City 2013 1080p x264 ACC - alrmothe","uid":8387348,"size":6009928780,"categoryP":"video","categoryS":"hd___movies","magnet":"?xt=urn:btih:7f6219aa0ec1a8d83a4033ac7f309d03464fb5b7&amp;dn=Broken+City+2013+1080p+x264+ACC+-+alrmothe&amp;tr=udp%3A%2F%2Ftracker.openbittorrent.com%3A80&amp;tr=udp%3A%2F%2Fopen.demonii.com%3A1337&amp;tr=udp%3A%2F%2Ftracker.coppersurfer.tk%3A6969&amp;tr=udp%3A%2F%2Fexodus.desync.com%3A6969","seeders":1,"leechers":0,"uploader":".alrmothe","files":29,"time":1366316055,"description":"***************************************************************\n\nBroken City 2013 1080p x264 ACC - alrmothe\n\n***************************************************************\n\nTitle : Broken City\nYEAR: 2013\nGENRE : Crime | Drama | Thriller     \nimdb URL :http://www.imdb.com/title/tt1235522/\nFormat: MP4\nOverall bit rate: 7362 kbps\nFormat version: Version 4 / Version 2\nFile size:  5.59 GiB\nDuration:  1h 48mn\nSub:Arabic,English,Dutch,Romanian\n***************************************************************\n\nVideo\nFormat : AVC \nFormat/Info : Advanced Video Codec \nFormat profile : &lt;a class=&quot;__cf_email__&quot; href=&quot;/cdn-cgi/l/email-protection&quot; data-cfemail=&quot;074f6e606f474b332937&quot;&gt;[email&amp;#160;protected]&lt;/a&gt;&lt;script cf-hash='f9e31' type=&quot;text/javascript&quot;&gt;\n/* &lt;![CDATA[ */!function(){try{var t=&quot;currentScript&quot;in document?document.currentScript:function(){for(var t=document.getElementsByTagName(&quot;script&quot;),e=t.length;e--;)if(t[e].getAttribute(&quot;cf-hash&quot;))return t[e]}();if(t&amp;&amp;t.previousSibling){var e,r,n,i,c=t.previousSibling,a=c.getAttribute(&quot;data-cfemail&quot;);if(a){for(e=&quot;&quot;,r=parseInt(a.substr(0,2),16),n=2;a.length-n;n+=2)i=parseInt(a.substr(n,2),16)^r,e+=String.fromCharCode(i);e=document.createTextNode(e),c.parentNode.replaceChild(e,c)}}}catch(u){}}();/* ]]&gt; */&lt;/script&gt; \nFormat settings, CABAC : Yes \nFormat settings, ReFrames : 4 frames  \nCodec ID : V_MPEG4/ISO/AVC  \nBit rate : 6910 kbps \nWidth : 1920 pixels \nHeight : 800 pixels \nDisplay aspect ratio : 16:9 \nFrame rate : 23.976 fps \nColor space : YUV \nChroma subsampling : 4:2:0 \nBit depth : 8 bits \nScan type : Progressive \nBits/(Pixel*Frame) : 0.188 \nStream size: 5.24 GiB \n\n\nAudio#1 \nFormat: ACC\nBit rate :448 Kbps\nChannel(s) : 6 channels\nChannel positions:Front: L C R, Side: L R, LFE\nSampling rate: 48.0 KHz\nBit depth: 24 bits\nCompression mode: Lossy\nStream size: 348 GiB\nLanguage : English\n\n***************************************************************\n\nScreenshots &lt;a href=&quot;\nhttp://img853.imageshack.us/img853/3637/vlcsnap2013041820h45m08.png&quot; rel=&quot;nofollow&quot; target=&quot;_NEW&quot;&gt;\nhttp://img853.imageshack.us/img853/3637/vlcsnap2013041820h45m08.png&lt;/a&gt; &lt;a href=&quot;\nhttp://img17.imageshack.us/img17/1023/vlcsnap2013041820h46m24.png&quot; rel=&quot;nofollow&quot; target=&quot;_NEW&quot;&gt;\nhttp://img17.imageshack.us/img17/1023/vlcsnap2013041820h46m24.png&lt;/a&gt; &lt;a href=&quot;\nhttp://img13.imageshack.us/img13/7715/vlcsnap2013041820h46m11.png&quot; rel=&quot;nofollow&quot; target=&quot;_NEW&quot;&gt;\nhttp://img13.imageshack.us/img13/7715/vlcsnap2013041820h46m11.png&lt;/a&gt; &lt;a href=&quot;\nhttp://img43.imageshack.us/img43/2741/vlcsnap2013041820h45m46.png&quot; rel=&quot;nofollow&quot; target=&quot;_NEW&quot;&gt;\nhttp://img43.imageshack.us/img43/2741/vlcsnap2013041820h45m46.png&lt;/a&gt; &lt;a href=&quot;\nhttp://img163.imageshack.us/img163/263/vlcsnap2013041820h45m27.png&quot; rel=&quot;nofollow&quot; target=&quot;_NEW&quot;&gt;\nhttp://img163.imageshack.us/img163/263/vlcsnap2013041820h45m27.png&lt;/a&gt;\n","torrent":{"xt":"urn:btih:7f6219aa0ec1a8d83a4033ac7f309d03464fb5b7","amp;dn":"Broken+City+2013+1080p+x264+ACC+-+alrmothe","amp;tr":["udp%3A%2F%2Ftracker.openbittorrent.com%3A80","udp%3A%2F%2Fopen.demonii.com%3A1337","udp%3A%2F%2Ftracker.coppersurfer.tk%3A6969","udp%3A%2F%2Fexodus.desync.com%3A6969"],"infoHash":"7f6219aa0ec1a8d83a4033ac7f309d03464fb5b7","infoHashBuffer":{"type":"Buffer","data":[127,98,25,170,14,193,168,216,58,64,51,172,127,48,157,3,70,79,181,183]},"announce":[],"urlList":[]}}